<?xml version="1.0" encoding="UTF-8"?><svg id="Calque_1" xmlns="http://www.w3.org/2000/svg" viewBox="0 0 400 400"><defs><style>.cls-1{stroke-width:4px;}.cls-1,.cls-2{fill:none;}.cls-1,.cls-2,.cls-3{stroke:#000;stroke-miterlimit:10;}.cls-2{stroke-width:3px;}.cls-3{fill:#fff;stroke-width:2px;}</style></defs><path class="cls-3" d="M164.66,188.5c0-20.04,16.91-24.43,16.91,0s-16.91,20.04-16.91,0Z"/><path class="cls-3" d="M222.91,185.73c0-20.04-16.91-24.43-16.91,0s16.91,20.04,16.91,0Z"/><path class="cls-1" d="M254.85,202.78c-38.66,65.89-115.55,29.96-121.19,0"/><path class="cls-2" d="M128.47,202.78c0-.69,9.85-4.27,9.47-3.22l-4.28,3.22s-5.19,.69-5.19,0Z"/><path class="cls-2" d="M260.32,202.88c0-.69-9.85-4.27-9.47-3.22l4.28,3.22s5.19,.69,5.19,0Z"/></svg>