<?xml version="1.0" encoding="UTF-8"?><svg id="Calque_1" xmlns="http://www.w3.org/2000/svg" viewBox="0 0 400 400"><defs><style>.cls-1{stroke-width:4px;}.cls-1,.cls-2,.cls-3,.cls-4{stroke:#000;stroke-miterlimit:10;}.cls-1,.cls-3{fill:none;}.cls-3{stroke-width:3px;}.cls-4{fill:#fff;}</style></defs><path class="cls-4" d="M175.86,116.86h39.56c35.2,0,63.9,28.23,64.47,63.43l.75,46.25c.58,36.02-28.45,65.53-64.47,65.53h-40.31c-35.61,0-64.48-28.87-64.48-64.48v-46.25c0-35.61,28.87-64.48,64.48-64.48Z"/><path class="cls-2" d="M164.66,188.5c0-20.04,16.91-24.43,16.91,0s-16.91,20.04-16.91,0Z"/><path class="cls-2" d="M222.91,185.73c0-20.04-16.91-24.43-16.91,0s16.91,20.04,16.91,0Z"/><path class="cls-1" d="M254.85,202.78c-38.66,65.89-115.55,29.96-121.19,0"/><path class="cls-3" d="M128.47,202.78c0-.69,9.85-4.27,9.47-3.22l-4.28,3.22s-5.19,.69-5.19,0Z"/><path class="cls-3" d="M260.32,202.88c0-.69-9.85-4.27-9.47-3.22l4.28,3.22s5.19,.69,5.19,0Z"/></svg>